<svg width="96" height="16" viewBox="0 0 96 16" fill="none" xmlns="http://www.w3.org/2000/svg">
<path d="M7.99999 11.5134L10.7667 13.1867C11.2733 13.4934 11.8933 13.04 11.76 12.4667L11.0267 9.32005L13.4733 7.20005C13.92 6.81338 13.68 6.08005 13.0933 6.03338L9.87332 5.76005L8.61332 2.78671C8.38665 2.24671 7.61332 2.24671 7.38665 2.78671L6.12665 5.75338L2.90665 6.02671C2.31999 6.07338 2.07999 6.80671 2.52665 7.19338L4.97332 9.31338L4.23999 12.46C4.10665 13.0334 4.72665 13.4867 5.23332 13.18L7.99999 11.5134Z" fill="#C46A2B"/>
<path d="M28 11.5134L30.7667 13.1867C31.2733 13.4934 31.8933 13.04 31.76 12.4667L31.0267 9.32005L33.4733 7.20005C33.92 6.81338 33.68 6.08005 33.0933 6.03338L29.8733 5.76005L28.6133 2.78671C28.3867 2.24671 27.6133 2.24671 27.3867 2.78671L26.1267 5.75338L22.9067 6.02671C22.32 6.07338 22.08 6.80671 22.5267 7.19338L24.9733 9.31338L24.24 12.46C24.1067 13.0334 24.7267 13.4867 25.2333 13.18L28 11.5134Z" fill="#C46A2B"/>
<path d="M48 11.5134L50.7667 13.1867C51.2733 13.4934 51.8933 13.04 51.76 12.4667L51.0267 9.32005L53.4733 7.20005C53.92 6.81338 53.68 6.08005 53.0933 6.03338L49.8733 5.76005L48.6133 2.78671C48.3867 2.24671 47.6133 2.24671 47.3867 2.78671L46.1267 5.75338L42.9067 6.02671C42.32 6.07338 42.08 6.80671 42.5267 7.19338L44.9733 9.31338L44.24 12.46C44.1067 13.0334 44.7267 13.4867 45.2333 13.18L48 11.5134Z" fill="#C46A2B"/>
<path d="M68 11.5134L70.7667 13.1867C71.2733 13.4934 71.8933 13.04 71.76 12.4667L71.0267 9.32005L73.4733 7.20005C73.92 6.81338 73.68 6.08005 73.0933 6.03338L69.8733 5.76005L68.6133 2.78671C68.3867 2.24671 67.6133 2.24671 67.3867 2.78671L66.1267 5.75338L62.9067 6.02671C62.32 6.07338 62.08 6.80671 62.5267 7.19338L64.9733 9.31338L64.24 12.46C64.1067 13.0334 64.7267 13.4867 65.2333 13.18L68 11.5134Z" fill="#C46A2B"/>
<path d="M88 11.5134L90.7667 13.1867C91.2733 13.4934 91.8933 13.04 91.76 12.4667L91.0267 9.32005L93.4733 7.20005C93.92 6.81338 93.68 6.08005 93.0933 6.03338L89.8733 5.76005L88.6133 2.78671C88.3867 2.24671 87.6133 2.24671 87.3867 2.78671L86.1267 5.75338L82.9067 6.02671C82.32 6.07338 82.08 6.80671 82.5267 7.19338L84.9733 9.31338L84.24 12.46C84.1067 13.0334 84.7267 13.4867 85.2333 13.18L88 11.5134Z" fill="#C46A2B"/>
</svg>
